<svg xmlns="http://www.w3.org/2000/svg" width="860" height="306" viewBox="0 0 860 306"
     font-family="ui-monospace,'SF Mono',SFMono-Regular,'JetBrains Mono','Fira Code',Consolas,'Liberation Mono',Menlo,monospace" role="img" aria-label="Projects: blockchain certificate verification, StudyNotion EdTech platform, this profile">
  <style>
    text { font-family: ui-monospace,'SF Mono',SFMono-Regular,'JetBrains Mono','Fira Code',Consolas,'Liberation Mono',Menlo,monospace; }
    .row { opacity: 0; animation: rise .5s cubic-bezier(.2,.7,.3,1) both 1; }
    .cmd { font-size: 15px; fill: #c9d1d9; }
    .idx { font-size: 10px; fill: #8b949e; letter-spacing: .12em; }
    .ttl { font-size: 13.5px; font-weight: 600; }
    .dsc { font-size: 11.5px; fill: #8b949e; }
    .chp { font-size: 10px; fill: #c9d1d9; }
    .cursor { animation: blink 1.1s steps(1) infinite; }
    @keyframes rise {
      from { opacity: 0; transform: translateY(10px); }
      to   { opacity: 1; transform: translateY(0); }
    }
    @keyframes blink { 0%, 49% { opacity: 1 } 50%, 100% { opacity: 0 } }
    @media (prefers-reduced-motion: reduce) {
      .row, .cursor { animation: none !important; opacity: 1 !important;
                       transform: none !important; }
    }
  </style>

  <rect x="0.5" y="0.5" width="859" height="305" rx="10"
        fill="#0f141b" stroke="#30363d"/>
  <path d="M0.5 10.5 a10 10 0 0 1 10 -10 h839
           a10 10 0 0 1 10 10 v19.5 h-859 z"
        fill="#161b22" stroke="#30363d"/>
  <circle cx="16" cy="15" r="5" fill="#ff5f56"/>
  <circle cx="33" cy="15" r="5" fill="#ffbd2e"/>
  <circle cx="50" cy="15" r="5" fill="#27c93f"/>
  <text x="430.0" y="19" font-family="ui-monospace,'SF Mono',SFMono-Regular,'JetBrains Mono','Fira Code',Consolas,'Liberation Mono',Menlo,monospace" font-size="11" fill="#8b949e"
        text-anchor="middle">projects.sh</text>

  <text class="cmd row" x="24" y="58" style="animation-delay:.1s"><tspan fill="#39d353">$</tspan> ls -la projects/<tspan class="cursor" fill="#39d353"> _</tspan></text>
  <text class="cmd row" x="836" y="58" text-anchor="end" fill="#8b949e"
        style="animation-delay:.2s">3 items</text>
  <line class="row" x1="24" y1="70" x2="836" y2="70" stroke="#30363d"
        style="animation-delay:.28s"/>
  <g class="row" style="animation-delay:0.35s">
    <rect x="24.0" y="84" width="256.0" height="196" rx="8" fill="#0f141b" stroke="#30363d"/>
    <rect x="24.0" y="84" width="3" height="196" rx="1.5" fill="#58a6ff"/>
    <text class="idx" x="38.0" y="108">01</text>
    <text class="ttl" x="38.0" y="130.0" fill="#58a6ff">Blockchain Certificates</text>
    <text class="dsc" x="38.0" y="174.0">Tamper-proof issuance and</text>
    <text class="dsc" x="38.0" y="189.5">verification. Solidity contracts</text>
    <text class="dsc" x="38.0" y="205.0">on an Ethereum testnet, MetaMask</text>
    <text class="dsc" x="38.0" y="220.5">auth, 100+ records.</text>
    <rect x="38.0" y="251" width="42.0" height="15" rx="4" fill="#161b22" stroke="#30363d"/>
    <text class="chp" x="59.0" y="262" text-anchor="middle">React</text>
    <rect x="86.0" y="251" width="60.0" height="15" rx="4" fill="#161b22" stroke="#30363d"/>
    <text class="chp" x="116.0" y="262" text-anchor="middle">Solidity</text>
    <rect x="152.0" y="251" width="36.0" height="15" rx="4" fill="#161b22" stroke="#30363d"/>
    <text class="chp" x="170.0" y="262" text-anchor="middle">IPFS</text>
    <rect x="194.0" y="251" width="60.0" height="15" rx="4" fill="#161b22" stroke="#30363d"/>
    <text class="chp" x="224.0" y="262" text-anchor="middle">Ethereum</text>
  </g>
  <g class="row" style="animation-delay:0.48s">
    <rect x="302.0" y="84" width="256.0" height="196" rx="8" fill="#0f141b" stroke="#30363d"/>
    <rect x="302.0" y="84" width="3" height="196" rx="1.5" fill="#e3b341"/>
    <text class="idx" x="316.0" y="108">02</text>
    <text class="ttl" x="316.0" y="130.0" fill="#e3b341">StudyNotion EdTech</text>
    <text class="dsc" x="316.0" y="174.0">Full-stack MERN learning</text>
    <text class="dsc" x="316.0" y="189.5">platform. JWT auth, instructor</text>
    <text class="dsc" x="316.0" y="205.0">dashboards, Razorpay payments.</text>
    <rect x="316.0" y="251" width="54.0" height="15" rx="4" fill="#161b22" stroke="#30363d"/>
    <text class="chp" x="343.0" y="262" text-anchor="middle">MongoDB</text>
    <rect x="376.0" y="251" width="54.0" height="15" rx="4" fill="#161b22" stroke="#30363d"/>
    <text class="chp" x="403.0" y="262" text-anchor="middle">Express</text>
    <rect x="436.0" y="251" width="42.0" height="15" rx="4" fill="#161b22" stroke="#30363d"/>
    <text class="chp" x="457.0" y="262" text-anchor="middle">React</text>
    <rect x="484.0" y="251" width="36.0" height="15" rx="4" fill="#161b22" stroke="#30363d"/>
    <text class="chp" x="502.0" y="262" text-anchor="middle">Node</text>
  </g>
  <g class="row" style="animation-delay:0.61s">
    <rect x="580.0" y="84" width="256.0" height="196" rx="8" fill="#0f141b" stroke="#30363d"/>
    <rect x="580.0" y="84" width="3" height="196" rx="1.5" fill="#bc8cff"/>
    <text class="idx" x="594.0" y="108">03</text>
    <text class="ttl" x="594.0" y="130.0" fill="#bc8cff">This profile</text>
    <text class="dsc" x="594.0" y="174.0">Every panel is an SVG my own</text>
    <text class="dsc" x="594.0" y="189.5">Python scripts generate,</text>
    <text class="dsc" x="594.0" y="205.0">re-rendered daily by a GitHub</text>
    <text class="dsc" x="594.0" y="220.5">Action.</text>
    <rect x="594.0" y="251" width="48.0" height="15" rx="4" fill="#161b22" stroke="#30363d"/>
    <text class="chp" x="618.0" y="262" text-anchor="middle">Python</text>
    <rect x="648.0" y="251" width="30.0" height="15" rx="4" fill="#161b22" stroke="#30363d"/>
    <text class="chp" x="663.0" y="262" text-anchor="middle">SVG</text>
    <rect x="684.0" y="251" width="54.0" height="15" rx="4" fill="#161b22" stroke="#30363d"/>
    <text class="chp" x="711.0" y="262" text-anchor="middle">Actions</text>
  </g>
</svg>
